<svg width="150" height="155" viewBox="0 0 150 155" fill="none" xmlns="http://www.w3.org/2000/svg">
<g clip-path="url(#clip0_23_272)">
<path d="M76.5487 131.976C77.8594 131.95 79.0984 132.081 80.2656 132.368C81.4328 132.654 82.3458 132.909 82.9913 133.144L83.0239 134.709C82.6457 134.539 82.1306 134.324 81.4785 134.056C80.8264 133.796 80.1156 133.567 79.3331 133.385C78.5571 133.202 77.8007 133.117 77.0639 133.131C75.6032 133.157 74.4294 133.567 73.5491 134.35C72.6688 135.132 72.2384 136.221 72.271 137.623C72.2906 138.491 72.5579 139.228 73.0796 139.834C73.6013 140.44 74.2729 140.995 75.0945 141.49C75.9162 141.986 76.7835 142.462 77.7029 142.918C78.6223 143.375 79.4896 143.877 80.3113 144.431C81.1329 144.979 81.8045 145.631 82.3327 146.387C82.8609 147.144 83.1283 148.037 83.1544 149.081C83.1739 149.948 82.9587 150.809 82.5088 151.669C82.0589 152.53 81.335 153.26 80.3243 153.86C79.3201 154.454 77.9833 154.773 76.3205 154.806C75.4141 154.825 74.4229 154.734 73.3535 154.532C72.284 154.33 71.3581 154.121 70.5821 153.893L70.869 151.624C72.1667 152.152 73.4513 152.582 74.7229 152.921C75.9944 153.26 77.2856 153.417 78.5897 153.391C79.2288 153.065 79.6657 152.654 79.9135 152.152C80.1548 151.65 80.2721 151.096 80.2591 150.496C80.2395 149.609 79.9591 148.833 79.4114 148.168C78.8636 147.503 78.1594 146.896 77.2921 146.348C76.4248 145.801 75.5184 145.272 74.5664 144.757C73.6143 144.242 72.7014 143.688 71.8406 143.081C70.9733 142.475 70.2691 141.797 69.7213 141.027C69.1736 140.264 68.8867 139.358 68.8671 138.315C68.841 137.16 69.1084 136.111 69.6692 135.152C70.2234 134.2 71.0777 133.437 72.2188 132.87C73.36 132.302 74.8076 132.002 76.5552 131.963L76.5487 131.976Z" fill="#B7CFBC"/>
<path d="M58.4402 129.798L51.4955 149.002C51.8019 149.204 52.1084 149.387 52.4279 149.55C52.7475 149.713 53.1126 149.87 53.53 150.02L58.1011 150.58L57.4882 152.869L41.3816 147.046L42.3401 144.881L46.2396 147.392C46.657 147.542 47.0417 147.659 47.3873 147.737C47.7394 147.816 48.0916 147.874 48.4567 147.913L55.4015 128.709L58.4337 129.805L58.4402 129.798Z" fill="#B7CFBC"/>
<path d="M39.5166 118.263C40.7229 119.371 41.5576 120.447 42.0206 121.484C42.4836 122.527 42.6923 123.499 42.6531 124.412C42.614 125.325 42.4184 126.153 42.0663 126.896C41.7141 127.64 41.3229 128.285 40.899 128.827C40.4752 129.368 40.1295 129.792 39.8557 130.085L30.433 140.349L27.9355 138.054L37.5408 127.594C37.8277 127.281 38.1537 126.903 38.5254 126.447C38.8971 125.99 39.2231 125.481 39.497 124.921C39.7709 124.36 39.9339 123.747 39.9926 123.075C40.0513 122.404 39.9209 121.706 39.5948 120.976C39.2753 120.245 38.6884 119.489 37.8407 118.706C36.4387 117.415 34.978 116.77 33.4652 116.763C31.9524 116.756 30.3808 117.637 28.7636 119.397L19.0932 129.929L18.0172 128.938L27.153 118.993C27.5116 118.602 27.9681 118.145 28.5158 117.63C29.0636 117.115 29.7092 116.639 30.446 116.215C31.1829 115.791 32.011 115.524 32.9435 115.413C33.8695 115.302 34.8802 115.459 35.9757 115.876C37.0712 116.294 38.2515 117.083 39.5231 118.256L39.5166 118.263Z" fill="#B7CFBC"/>
<path d="M29.0832 107.353L8.6467 115.55L6.3057 109.714C5.75143 108.338 5.38626 106.871 5.20367 105.319C5.02109 103.767 5.12542 102.235 5.51015 100.715C5.89489 99.1958 6.62523 97.8134 7.71421 96.5548C8.79668 95.2963 10.3291 94.2725 12.3049 93.477C14.0134 92.7923 15.6045 92.5119 17.0717 92.6358C18.5454 92.7597 19.8757 93.2031 21.0755 93.953C22.2754 94.7029 23.3252 95.681 24.2447 96.8939C25.1641 98.1068 25.914 99.4501 26.5074 100.93L29.0832 107.353ZM25.7053 101.974C25.0402 100.304 24.1143 98.9545 22.9274 97.9112C21.7472 96.8678 20.3321 96.2418 18.6823 96.0332C17.0326 95.8245 15.1806 96.131 13.12 96.9526C11.5355 97.5851 10.2313 98.4524 9.21402 99.5414C8.19676 100.63 7.46642 101.856 7.02952 103.213C6.59262 104.569 6.47525 105.964 6.66435 107.393C6.95127 108.116 7.34252 108.905 7.83159 109.773C8.32066 110.64 8.77712 111.325 9.19446 111.827L26.54 104.869C26.5074 104.549 26.4096 104.106 26.2466 103.552C26.0836 102.997 25.901 102.469 25.7053 101.98V101.974Z" fill="#B7CFBC"/>
<path d="M22.1319 83.4283L0.14346 84.4456L0 81.3873L21.995 80.37L22.1384 83.4283H22.1319Z" fill="#B7CFBC"/>
<path d="M24.3686 65.1502C23.8338 66.9108 22.9535 68.3911 21.7211 69.5974C20.4886 70.7973 18.9758 71.5928 17.1825 71.9776C15.3893 72.3623 13.3743 72.2188 11.1442 71.5407C9.40312 71.0125 7.95548 70.3212 6.80129 69.4605C5.64709 68.5997 4.75373 67.6412 4.10816 66.5783C3.46911 65.5154 3.02569 64.4068 2.78442 63.2591C2.54315 62.1114 2.45837 60.9703 2.5301 59.8487C2.60183 58.7271 2.79094 57.6772 3.08438 56.6991C3.62561 54.9189 4.50593 53.4256 5.72534 52.2193C6.95127 51.0129 8.45107 50.2173 10.2378 49.8326C12.0245 49.4479 14.0264 49.5913 16.2566 50.263C17.9977 50.7912 19.4453 51.4824 20.5995 52.3432C21.7537 53.2039 22.6536 54.169 23.2991 55.245C23.9447 56.3209 24.3946 57.436 24.649 58.5902C24.9033 59.7444 24.9946 60.8855 24.9163 62.0071C24.8446 63.1287 24.6555 64.1786 24.362 65.1567L24.3686 65.1502ZM23.5991 63.9112C23.9838 62.6396 24.0034 61.4594 23.6643 60.3704C23.3252 59.2814 22.7449 58.3098 21.9428 57.4555C21.1342 56.6013 20.2017 55.8644 19.1323 55.2515C18.0694 54.6385 17.013 54.1755 15.9762 53.8625C14.659 53.4647 13.3743 53.217 12.1158 53.1257C10.8573 53.0344 9.69004 53.1583 8.62061 53.4908C7.54467 53.8234 6.59914 54.4233 5.79055 55.271C4.97544 56.1253 4.34291 57.3056 3.88645 58.8119C3.94514 60.3834 4.32987 61.7854 5.04717 63.0179C5.76447 64.2503 6.69695 65.2871 7.85767 66.1283C9.01839 66.9695 10.2965 67.5955 11.6985 68.0194C12.9896 68.4106 14.2677 68.6519 15.5262 68.7432C16.7848 68.8345 17.952 68.7432 19.0345 68.4693C20.1104 68.1954 21.0494 67.6868 21.845 66.9369C22.6405 66.1935 23.2274 65.1828 23.6121 63.9112H23.5991Z" fill="#B7CFBC"/>
<path d="M36.5757 41.0294L25.901 21.7341L28.5224 20.0908L43.9638 30.2243L41.2511 12.0962L44.1203 10.2899L56.8817 28.2745L54.006 30.0808L43.1748 14.535L43.0639 14.6067L46.0375 35.0889L45.6462 35.3366L29.031 24.3359L28.9201 24.4076L37.8212 40.2599L36.5822 41.0424L36.5757 41.0294Z" fill="#B7CFBC"/>
<path d="M71.3972 27.0356C69.7605 27.1399 68.4041 27.003 67.3412 26.6117C66.2718 26.227 65.4241 25.7053 64.7916 25.0402C64.159 24.3816 63.6961 23.6643 63.4026 22.8948C63.1092 22.1254 62.9135 21.4016 62.8092 20.7169C62.7114 20.0322 62.6462 19.4909 62.6201 19.0932L61.7267 5.1841L65.1111 4.96891L66.024 19.1388C66.0501 19.5627 66.1023 20.0648 66.174 20.6451C66.2457 21.2255 66.3892 21.8124 66.6044 22.3992C66.8196 22.9861 67.1521 23.5274 67.5955 24.036C68.039 24.5381 68.6389 24.9294 69.3888 25.2032C70.1387 25.4771 71.0907 25.5749 72.2384 25.5032C74.1425 25.3793 75.6162 24.7729 76.6726 23.6839C77.7225 22.5949 78.1724 20.8538 78.0224 18.4672L77.103 4.19945L78.5637 4.10815L79.431 17.5803C79.4636 18.115 79.4766 18.7541 79.4701 19.5105C79.4636 20.2669 79.3592 21.0559 79.1571 21.8776C78.9549 22.6992 78.5702 23.4882 78.0094 24.2316C77.4486 24.9815 76.6335 25.601 75.5771 26.1031C74.5207 26.6052 73.1318 26.9117 71.4037 27.0226L71.3972 27.0356Z" fill="#B7CFBC"/>
<path d="M91.8793 29.7026C90.6469 29.2657 89.5318 28.7115 88.5341 28.0333C87.5364 27.3551 86.78 26.7943 86.2518 26.3509L86.7669 24.8772C87.0604 25.1706 87.4712 25.5554 87.9863 26.0249C88.5015 26.5009 89.0884 26.9574 89.7535 27.4073C90.4186 27.8507 91.0968 28.1963 91.788 28.4376C93.1705 28.9201 94.4094 28.9527 95.5115 28.5289C96.6135 28.105 97.396 27.2312 97.859 25.914C98.1459 25.0989 98.1524 24.3099 97.8785 23.56C97.6047 22.8035 97.1678 22.0536 96.5744 21.3037C95.981 20.5538 95.3354 19.8039 94.6311 19.054C93.9269 18.3041 93.2944 17.5281 92.714 16.7261C92.1402 15.924 91.7359 15.0763 91.5076 14.1895C91.2794 13.2961 91.3381 12.3636 91.6837 11.379C91.9706 10.5638 92.4727 9.82698 93.1965 9.17489C93.9204 8.5228 94.8594 8.09894 96.007 7.89028C97.1612 7.68813 98.5241 7.85767 100.089 8.40543C100.943 8.70539 101.843 9.13576 102.769 9.70308C103.695 10.2704 104.491 10.7921 105.143 11.2746L104.08 13.2961C103.05 12.344 102 11.4898 100.93 10.7269C99.8609 9.96392 98.7067 9.364 97.4742 8.93362C96.7635 9.01187 96.2092 9.24662 95.7984 9.63135C95.3876 10.0161 95.0876 10.4921 94.892 11.0594C94.5985 11.8941 94.592 12.7223 94.8659 13.5374C95.1463 14.3525 95.5897 15.1676 96.2092 15.9827C96.8287 16.7978 97.4938 17.6129 98.2046 18.428C98.9154 19.2431 99.574 20.0843 100.174 20.9516C100.774 21.8189 101.198 22.7057 101.439 23.6187C101.687 24.5251 101.635 25.4706 101.289 26.4552C100.904 27.5442 100.285 28.4376 99.4305 29.1353C98.5763 29.8331 97.5134 30.2504 96.2418 30.3808C94.9702 30.5112 93.5161 30.283 91.8598 29.7026H91.8793ZM100.057 6.63174L97.9437 0L99.2023 0.44342L101.628 4.57114L106.075 2.85615L107.327 3.29957L101.563 7.15993L100.057 6.63174Z" fill="#B7CFBC"/>
<path d="M104.817 34.1238L121.543 19.7583L123.688 21.9884L116.9 39.1645L134.102 32.8262L136.45 35.2715L121.425 51.4107L119.078 48.9654L132.1 35.2063L132.009 35.1085L112.557 42.1771L112.238 41.838L119.639 23.3317L119.547 23.2339L105.834 35.1672L104.823 34.1108L104.817 34.1238Z" fill="#B7CFBC"/>
<path d="M125.573 65.3719C125.136 63.7874 125.005 62.4375 125.168 61.3094C125.331 60.1813 125.671 59.2488 126.192 58.4924C126.707 57.7425 127.314 57.1426 128.012 56.6992C128.703 56.2557 129.374 55.9166 130.027 55.6819C130.672 55.4471 131.194 55.2776 131.578 55.1733L145.018 51.4955L145.911 54.769L132.218 58.5185C131.813 58.6293 131.331 58.7793 130.77 58.9684C130.209 59.1575 129.668 59.4118 129.14 59.7444C128.611 60.0705 128.142 60.5074 127.738 61.0421C127.333 61.5768 127.073 62.2419 126.955 63.0309C126.838 63.82 126.929 64.772 127.236 65.8871C127.738 67.726 128.631 69.0497 129.909 69.8648C131.187 70.6734 132.98 70.7647 135.295 70.1322L149.087 66.3566L149.472 67.7651L136.45 71.3255C135.934 71.4624 135.308 71.6059 134.565 71.7559C133.822 71.8993 133.026 71.958 132.178 71.9254C131.331 71.8928 130.483 71.6776 129.635 71.2733C128.794 70.869 128.018 70.2039 127.314 69.2714C126.61 68.3389 126.029 67.0348 125.573 65.3654V65.3719Z" fill="#B7CFBC"/>
<path d="M128.129 80.4547L150 82.9587L149.628 86.1931L129.537 83.8912C129.316 84.4455 129.114 85.0063 128.924 85.5801C128.735 86.1475 128.618 86.643 128.572 87.0669L128.911 93.1639L126.74 92.5118L128.122 80.4547H128.129Z" fill="#B7CFBC"/>
<path d="M126.46 95.4071L141.705 114.735L141.471 115.172L116.926 113.268L118.635 110.073L125.09 110.692L129.74 101.98L125.618 96.9917L126.466 95.4071H126.46ZM130.62 103.017L126.453 110.822L138.028 112.022L130.62 103.017Z" fill="#B7CFBC"/>
<path d="M107.353 129.446C107.653 129.25 108.058 129.159 108.579 129.166C109.101 129.166 109.525 129.433 109.864 129.955C110.157 130.398 110.242 130.881 110.138 131.383C110.027 131.891 109.773 132.276 109.362 132.544C108.931 132.824 108.462 132.902 107.953 132.785C107.438 132.667 107.047 132.394 106.767 131.97C106.427 131.448 106.369 130.946 106.584 130.463C106.799 129.981 107.053 129.642 107.353 129.446Z" fill="#B7CFBC"/>
</g>
</svg>
