<svg width="350" height="33" viewBox="0 0 350 33" fill="none" xmlns="http://www.w3.org/2000/svg">
<g clip-path="url(#clip0_18_7)">
<path d="M6.97195 32.6225C5.54951 32.6225 4.20721 32.4556 2.94505 32.115C1.68288 31.7811 0.701202 31.4739 0 31.2135V29.5172C0.407365 29.7109 0.961649 29.958 1.66285 30.2585C2.36405 30.559 3.13204 30.8194 3.97348 31.0331C4.81492 31.2468 5.63633 31.3604 6.43103 31.3604C8.02042 31.3604 9.30261 30.9463 10.2776 30.1116C11.2526 29.2835 11.7401 28.1081 11.7401 26.5855C11.7401 25.6439 11.4663 24.8425 10.912 24.168C10.3578 23.4936 9.6432 22.8792 8.76169 22.3249C7.88018 21.7706 6.95192 21.2364 5.96356 20.7155C4.9752 20.1946 4.04026 19.6336 3.16543 19.0192C2.28392 18.4048 1.56936 17.6836 1.01507 16.8488C0.46079 16.0207 0.186987 15.0391 0.186987 13.9038C0.186987 12.9622 0.440756 12.0339 0.948292 11.1057C1.45583 10.1774 2.2572 9.40273 3.36577 8.77499C4.47434 8.14725 5.93017 7.83337 7.73994 7.83337C8.7283 7.83337 9.79679 7.95358 10.9521 8.19399C12.1074 8.43441 13.1091 8.68817 13.9506 8.9553L13.59 11.4128C12.1942 10.8118 10.8052 10.311 9.43618 9.91695C8.06048 9.52294 6.66476 9.32259 5.24232 9.32259C4.54112 9.66318 4.05362 10.0973 3.77981 10.6382C3.50601 11.1791 3.36577 11.7735 3.36577 12.4279C3.36577 13.3896 3.65293 14.2377 4.23392 14.9723C4.81492 15.7069 5.56287 16.3814 6.49113 16.9957C7.41939 17.6101 8.39439 18.2045 9.41614 18.7855C10.4379 19.3665 11.4129 19.9875 12.3412 20.662C13.2694 21.3365 14.024 22.0978 14.5984 22.9393C15.1794 23.7807 15.4665 24.7691 15.4665 25.9044C15.4665 27.1598 15.1526 28.2951 14.5249 29.3169C13.8972 30.3386 12.9555 31.1467 11.7067 31.7343C10.4513 32.322 8.87521 32.6225 6.97195 32.6225Z" fill="white"/>
<path d="M29.1166 32.1885V10.0105C28.7293 9.91702 28.3486 9.84356 27.9613 9.79682C27.5739 9.75007 27.1399 9.72336 26.659 9.72336L21.784 10.8453L21.5703 8.28088H40.1755L39.9952 10.8453L35.0801 9.72336C34.5993 9.72336 34.1652 9.75007 33.7779 9.79682C33.3906 9.84356 33.0099 9.91702 32.6226 10.0105V32.1885H29.1166Z" fill="white"/>
<path d="M55.8157 32.6226C54.0326 32.6226 52.5768 32.3755 51.4415 31.8813C50.3062 31.3871 49.4247 30.7594 48.7836 30.0048C48.1425 29.2435 47.6951 28.4421 47.428 27.5873C47.1608 26.7325 47.0006 25.9311 46.9405 25.1832C46.8804 24.4352 46.8537 23.8475 46.8537 23.4135V8.27417H50.54V23.7006C50.54 24.1614 50.56 24.709 50.5934 25.3434C50.6268 25.9845 50.7403 26.6256 50.934 27.2734C51.1276 27.9212 51.4482 28.5356 51.8889 29.1166C52.3364 29.6976 52.9574 30.1584 53.7521 30.5056C54.5468 30.8529 55.5686 31.0265 56.8241 31.0265C58.8943 31.0265 60.5371 30.4722 61.7525 29.3637C62.9679 28.2551 63.5756 26.3986 63.5756 23.8008V8.27417H65.165V22.9393C65.165 23.5203 65.1317 24.2148 65.0716 25.0362C65.0114 25.8577 64.8445 26.7058 64.564 27.5806C64.2902 28.4621 63.8161 29.2835 63.1549 30.0582C62.4938 30.8262 61.5722 31.4472 60.3902 31.9214C59.2082 32.3888 57.6789 32.6226 55.8023 32.6226H55.8157Z" fill="white"/>
<path d="M74.7481 32.1885V8.27417H81.5732C83.1893 8.27417 84.8121 8.49455 86.4482 8.94198C88.0843 9.38942 89.5936 10.1107 90.9626 11.1124C92.3383 12.1141 93.4402 13.4096 94.2683 15.0124C95.0964 16.6151 95.5171 18.5718 95.5171 20.8825C95.5171 22.8792 95.1565 24.5955 94.4352 26.0313C93.714 27.4671 92.7323 28.6357 91.4902 29.5373C90.248 30.4388 88.8323 31.1066 87.2429 31.5407C85.6535 31.9748 83.9906 32.1885 82.2543 32.1885H74.7415H74.7481ZM81.5398 30.9597C83.4898 30.9597 85.2328 30.5724 86.7621 29.8044C88.2914 29.0364 89.4934 27.8611 90.3749 26.285C91.2564 24.709 91.6905 22.7123 91.6905 20.3081C91.6905 18.4516 91.3499 16.7888 90.6621 15.3196C89.9742 13.8504 89.0393 12.6216 87.8439 11.6333C86.6485 10.6449 85.2996 9.95705 83.7769 9.5764C82.9355 9.5764 81.9739 9.64986 80.9054 9.7901C79.8302 9.93702 78.962 10.1173 78.2875 10.331V30.6325C78.6214 30.726 79.1089 30.8061 79.73 30.8662C80.3578 30.9263 80.9588 30.9597 81.5331 30.9597H81.5398Z" fill="white"/>
<path d="M103.938 32.1885V8.27417H107.264V32.1885H103.938Z" fill="white"/>
<path d="M126.156 32.6226C124.16 32.6226 122.336 32.1685 120.7 31.2669C119.064 30.3654 117.762 29.0364 116.8 27.2934C115.839 25.5504 115.358 23.4068 115.358 20.8824C115.358 18.9057 115.625 17.1828 116.152 15.7136C116.68 14.2444 117.401 13.0089 118.303 12.0072C119.204 11.0055 120.219 10.2041 121.335 9.58975C122.457 8.97537 123.612 8.52793 124.801 8.25413C125.996 7.98033 127.145 7.84009 128.253 7.84009C130.277 7.84009 132.106 8.28752 133.743 9.17571C135.379 10.0639 136.681 11.3795 137.643 13.1158C138.604 14.8521 139.085 16.9824 139.085 19.5134C139.085 21.4902 138.818 23.2131 138.29 24.6823C137.763 26.1515 137.035 27.3936 136.12 28.402C135.205 29.4104 134.19 30.2318 133.068 30.8596C131.946 31.4873 130.791 31.9347 129.602 32.2152C128.407 32.489 127.258 32.6293 126.15 32.6293L126.156 32.6226ZM127.205 31.4272C128.647 31.4272 129.883 31.0799 130.911 30.3787C131.933 29.6775 132.768 28.776 133.402 27.6674C134.043 26.5588 134.511 25.3568 134.811 24.0546C135.112 22.7523 135.265 21.5169 135.265 20.3348C135.265 18.8389 135.112 17.4232 134.811 16.0876C134.511 14.7519 134.016 13.5766 133.329 12.5615C132.641 11.5531 131.726 10.7584 130.584 10.1774C129.442 9.59643 128.013 9.30927 126.303 9.30927C124.687 9.86356 123.351 10.705 122.29 11.8403C121.228 12.9756 120.446 14.2711 119.939 15.7403C119.431 17.2095 119.178 18.7388 119.178 20.3282C119.178 21.7973 119.331 23.1998 119.632 24.5354C119.932 25.871 120.393 27.0597 121.021 28.0948C121.649 29.1299 122.47 29.9447 123.498 30.5323C124.52 31.12 125.756 31.4138 127.205 31.4138V31.4272Z" fill="white"/>
<path d="M159.54 32.1885L160.876 8.27417H164.235L172.583 26.5188L180.57 8.27417H184.256L185.591 32.1885H181.905L180.93 11.6333H180.783L171.681 32.1885H171.173L162.251 12.4613H162.105L161.13 32.1885H159.54Z" fill="white"/>
<path d="M203.976 32.6226C202.193 32.6226 200.737 32.3755 199.609 31.8813C198.474 31.3871 197.592 30.7594 196.951 30.0048C196.31 29.2435 195.862 28.4421 195.595 27.5873C195.328 26.7325 195.168 25.9311 195.108 25.1832C195.048 24.4352 195.014 23.8475 195.014 23.4135V8.27417H198.701V23.7006C198.701 24.1614 198.721 24.709 198.754 25.3434C198.787 25.9845 198.901 26.6256 199.095 27.2734C199.288 27.9212 199.609 28.5356 200.05 29.1166C200.497 29.6976 201.118 30.1584 201.913 30.5056C202.708 30.8529 203.729 31.0265 204.985 31.0265C207.055 31.0265 208.698 30.4722 209.92 29.3637C211.135 28.2551 211.743 26.3986 211.743 23.8008V8.27417H213.332V22.9393C213.332 23.5203 213.299 24.2148 213.239 25.0362C213.179 25.8577 213.012 26.7058 212.731 27.5806C212.458 28.4621 211.983 29.2835 211.322 30.0582C210.661 30.8262 209.74 31.4472 208.558 31.9214C207.376 32.3888 205.846 32.6226 203.97 32.6226H203.976Z" fill="white"/>
<path d="M229.119 32.6226C227.697 32.6226 226.355 32.4556 225.093 32.1151C223.83 31.7745 222.849 31.474 222.147 31.2135V29.5173C222.555 29.7109 223.109 29.958 223.81 30.2585C224.512 30.5591 225.28 30.8195 226.121 31.0332C226.962 31.2469 227.784 31.3604 228.579 31.3604C230.168 31.3604 231.45 30.9464 232.425 30.1116C233.4 29.2835 233.888 28.1082 233.888 26.5856C233.888 25.644 233.607 24.8426 233.053 24.1681C232.499 23.4936 231.784 22.8792 230.903 22.3249C230.021 21.7707 229.093 21.2364 228.104 20.7155C227.116 20.1946 226.181 19.6337 225.306 19.0193C224.425 18.4049 223.71 17.6837 223.156 16.8489C222.602 16.0208 222.328 15.0391 222.328 13.9038C222.328 12.9622 222.582 12.034 223.089 11.1057C223.597 10.1774 224.405 9.40279 225.513 8.77504C226.622 8.1473 228.078 7.83343 229.881 7.83343C230.869 7.83343 231.938 7.95364 233.1 8.19405C234.255 8.43446 235.257 8.68823 236.098 8.95535L235.737 11.4129C234.342 10.8119 232.953 10.311 231.584 9.917C230.208 9.52299 228.812 9.32265 227.39 9.32265C226.689 9.66323 226.201 10.0973 225.927 10.6382C225.654 11.1792 225.513 11.7735 225.513 12.428C225.513 13.3896 225.8 14.2377 226.381 14.9723C226.962 15.7069 227.71 16.3814 228.639 16.9958C229.567 17.6102 230.542 18.2045 231.564 18.7855C232.585 19.3665 233.56 19.9876 234.489 20.6621C235.417 21.3366 236.172 22.0979 236.746 22.9393C237.327 23.7808 237.614 24.7691 237.614 25.9044C237.614 27.1599 237.3 28.2952 236.672 29.3169C236.045 30.3387 235.11 31.1467 233.854 31.7344C232.599 32.3221 231.023 32.6226 229.119 32.6226ZM229.193 6.03034L224.638 0H226.081L230.054 3.35909L233.994 0H235.437L230.923 6.03034H229.186H229.193Z" fill="white"/>
<path d="M246.316 32.1885L247.651 8.27417H251.01L259.358 26.5188L267.345 8.27417H271.031L272.367 32.1885H268.681L267.706 11.6333H267.559L258.456 32.1885H257.949L249.027 12.4613H248.88L247.905 32.1885H246.316Z" fill="white"/>
<path d="M290.752 32.6226C288.969 32.6226 287.513 32.3755 286.384 31.8813C285.249 31.3871 284.367 30.7594 283.726 30.0048C283.085 29.2435 282.638 28.4421 282.371 27.5873C282.104 26.7325 281.943 25.9311 281.883 25.1832C281.823 24.4352 281.79 23.8475 281.79 23.4135V8.27417H285.476V23.7006C285.476 24.1614 285.496 24.709 285.529 25.3434C285.563 25.9845 285.676 26.6256 285.87 27.2734C286.064 27.9212 286.384 28.5356 286.825 29.1166C287.272 29.6976 287.894 30.1584 288.688 30.5056C289.483 30.8529 290.505 31.0265 291.76 31.0265C293.83 31.0265 295.473 30.4722 296.695 29.3637C297.911 28.2551 298.518 26.3986 298.518 23.8008V8.27417H300.108V22.9393C300.108 23.5203 300.074 24.2148 300.014 25.0362C299.954 25.8577 299.787 26.7058 299.507 27.5806C299.233 28.4621 298.759 29.2835 298.098 30.0582C297.437 30.8262 296.515 31.4472 295.333 31.9214C294.151 32.3888 292.622 32.6226 290.745 32.6226H290.752Z" fill="white"/>
<path d="M309.684 32.1885V8.27417H313.224V30.2385C313.851 30.4054 314.479 30.559 315.12 30.6926C315.761 30.8262 316.309 30.8929 316.763 30.8929L323.301 29.771L322.867 32.1885H309.684Z" fill="white"/>
<path d="M328.002 32.1886L338.734 7.69324H339.275L350.007 32.1886H346.067L343.355 25.6841H332.624L329.952 32.1886H328.002ZM333.171 24.3151H342.781L338.013 12.6083L333.171 24.3151Z" fill="white"/>
</g>
<defs>
<clipPath id="clip0_18_7">
<rect width="350" height="32.6226" fill="white"/>
</clipPath>
</defs>
</svg>
