<svg width="350" height="33" viewBox="0 0 350 33" fill="none" xmlns="http://www.w3.org/2000/svg">
<path d="M6.97195 32.6225C5.54951 32.6225 4.20721 32.4556 2.94505 32.115C1.68288 31.7811 0.701202 31.4739 0 31.2135V29.5172C0.407365 29.7109 0.961649 29.958 1.66285 30.2585C2.36405 30.559 3.13204 30.8194 3.97348 31.0331C4.81492 31.2468 5.63633 31.3604 6.43103 31.3604C8.02042 31.3604 9.30261 30.9463 10.2776 30.1116C11.2526 29.2835 11.7401 28.1081 11.7401 26.5855C11.7401 25.6439 11.4663 24.8425 10.912 24.168C10.3578 23.4936 9.6432 22.8792 8.76169 22.3249C7.88018 21.7706 6.95192 21.2364 5.96356 20.7155C4.9752 20.1946 4.04026 19.6336 3.16543 19.0192C2.28392 18.4048 1.56936 17.6836 1.01507 16.8488C0.46079 16.0207 0.186987 15.0391 0.186987 13.9038C0.186987 12.9622 0.440756 12.0339 0.948292 11.1057C1.45583 10.1774 2.2572 9.40273 3.36577 8.77499C4.47434 8.14725 5.93017 7.83337 7.73994 7.83337C8.7283 7.83337 9.79679 7.95358 10.9521 8.19399C12.1074 8.43441 13.1091 8.68817 13.9506 8.9553L13.59 11.4128C12.1942 10.8118 10.8052 10.311 9.43618 9.91695C8.06048 9.52294 6.66476 9.32259 5.24232 9.32259C4.54112 9.66318 4.05362 10.0973 3.77981 10.6382C3.50601 11.1791 3.36577 11.7735 3.36577 12.4279C3.36577 13.3896 3.65293 14.2377 4.23392 14.9723C4.81492 15.7069 5.56287 16.3814 6.49113 16.9957C7.41939 17.6101 8.39439 18.2045 9.41614 18.7855C10.4379 19.3665 11.4129 19.9875 12.3412 20.662C13.2694 21.3365 14.024 22.0978 14.5984 22.9393C15.1794 23.7807 15.4665 24.7691 15.4665 25.9044C15.4665 27.1598 15.1526 28.2951 14.5249 29.3169C13.8972 30.3386 12.9555 31.1467 11.7067 31.7343C10.4513 32.322 8.87521 32.6225 6.97195 32.6225Z" fill="black"/>
<path d="M29.1161 32.1884V10.0104C28.7288 9.9169 28.3481 9.84344 27.9608 9.79669C27.5734 9.74995 27.1394 9.72324 26.6585 9.72324L21.7835 10.8452L21.5698 8.28076H40.1751L39.9947 10.8452L35.0797 9.72324C34.5988 9.72324 34.1648 9.74995 33.7774 9.79669C33.3901 9.84344 33.0094 9.9169 32.6221 10.0104V32.1884H29.1161Z" fill="black"/>
<path d="M55.8146 32.6225C54.0315 32.6225 52.5757 32.3754 51.4404 31.8812C50.3051 31.387 49.4236 30.7593 48.7825 30.0046C48.1414 29.2433 47.694 28.442 47.4269 27.5872C47.1597 26.7324 46.9995 25.931 46.9394 25.183C46.8792 24.4351 46.8525 23.8474 46.8525 23.4133V8.27405H50.5389V23.7005C50.5389 24.1613 50.5589 24.7089 50.5923 25.3433C50.6257 25.9844 50.7392 26.6255 50.9329 27.2733C51.1265 27.9211 51.4471 28.5354 51.8878 29.1164C52.3353 29.6974 52.9563 30.1582 53.751 30.5055C54.5457 30.8528 55.5675 31.0264 56.823 31.0264C58.8932 31.0264 60.536 30.4721 61.7514 29.3635C62.9668 28.255 63.5745 26.3985 63.5745 23.8007V8.27405H65.1639V22.9392C65.1639 23.5202 65.1305 24.2147 65.0704 25.0361C65.0103 25.8575 64.8434 26.7056 64.5629 27.5805C64.2891 28.462 63.8149 29.2834 63.1538 30.0581C62.4927 30.826 61.5711 31.4471 60.3891 31.9213C59.207 32.3887 57.6778 32.6225 55.8012 32.6225H55.8146Z" fill="black"/>
<path d="M74.7467 32.1884V8.27405H81.5717C83.1878 8.27405 84.8106 8.49443 86.4467 8.94186C88.0829 9.38929 89.5921 10.1105 90.9611 11.1122C92.3368 12.114 93.4387 13.4095 94.2668 15.0123C95.0949 16.615 95.5156 18.5717 95.5156 20.8823C95.5156 22.8791 95.155 24.5954 94.4338 26.0312C93.7125 27.467 92.7308 28.6356 91.4887 29.5372C90.2466 30.4387 88.8308 31.1065 87.2414 31.5406C85.652 31.9747 83.9892 32.1884 82.2529 32.1884H74.74H74.7467ZM81.5383 30.9596C83.4883 30.9596 85.2313 30.5723 86.7606 29.8043C88.2899 29.0363 89.4919 27.861 90.3735 26.2849C91.255 24.7089 91.689 22.7121 91.689 20.308C91.689 18.4515 91.3485 16.7886 90.6606 15.3195C89.9728 13.8503 89.0378 12.6215 87.8424 11.6331C86.6471 10.6448 85.2981 9.95693 83.7755 9.57628C82.934 9.57628 81.9724 9.64974 80.9039 9.78998C79.8287 9.9369 78.9606 10.1172 78.2861 10.3309V30.6324C78.62 30.7259 79.1075 30.806 79.7285 30.8661C80.3563 30.9262 80.9573 30.9596 81.5316 30.9596H81.5383Z" fill="black"/>
<path d="M103.936 32.1884V8.27405H107.262V32.1884H103.936Z" fill="black"/>
<path d="M126.154 32.6225C124.157 32.6225 122.334 32.1683 120.698 31.2668C119.062 30.3653 117.76 29.0363 116.798 27.2933C115.837 25.5503 115.356 23.4067 115.356 20.8823C115.356 18.9056 115.623 17.1827 116.15 15.7135C116.678 14.2443 117.399 13.0088 118.301 12.0071C119.202 11.0054 120.217 10.204 121.333 9.58963C122.455 8.97525 123.61 8.52781 124.799 8.25401C125.994 7.98021 127.143 7.83997 128.251 7.83997C130.275 7.83997 132.104 8.2874 133.741 9.17559C135.377 10.0638 136.679 11.3794 137.641 13.1157C138.602 14.852 139.083 16.9823 139.083 19.5133C139.083 21.49 138.816 23.213 138.288 24.6822C137.761 26.1514 137.033 27.3935 136.118 28.4019C135.203 29.4103 134.188 30.2317 133.066 30.8594C131.944 31.4872 130.789 31.9346 129.6 32.2151C128.405 32.4889 127.256 32.6291 126.148 32.6291L126.154 32.6225ZM127.203 31.4271C128.645 31.4271 129.881 31.0798 130.909 30.3786C131.931 29.6774 132.766 28.7759 133.4 27.6673C134.041 26.5587 134.509 25.3567 134.809 24.0544C135.11 22.7522 135.263 21.5167 135.263 20.3347C135.263 18.8388 135.11 17.4231 134.809 16.0874C134.509 14.7518 134.014 13.5765 133.327 12.5614C132.639 11.553 131.724 10.7583 130.582 10.1773C129.44 9.59631 128.011 9.30915 126.301 9.30915C124.685 9.86343 123.349 10.7049 122.288 11.8402C121.226 12.9754 120.444 14.271 119.937 15.7402C119.429 17.2094 119.176 18.7387 119.176 20.328C119.176 21.7972 119.329 23.1996 119.63 24.5353C119.93 25.8709 120.391 27.0596 121.019 28.0947C121.646 29.1298 122.468 29.9445 123.496 30.5322C124.518 31.1199 125.754 31.4137 127.203 31.4137V31.4271Z" fill="black"/>
<path d="M159.537 32.1884L160.872 8.27405H164.232L172.579 26.5187L180.566 8.27405H184.253L185.588 32.1884H181.902L180.927 11.6331H180.78L171.678 32.1884H171.17L162.248 12.4612H162.101L161.126 32.1884H159.537Z" fill="black"/>
<path d="M203.972 32.6225C202.189 32.6225 200.733 32.3754 199.605 31.8812C198.47 31.387 197.588 30.7593 196.947 30.0046C196.306 29.2433 195.858 28.442 195.591 27.5872C195.324 26.7324 195.164 25.931 195.104 25.183C195.044 24.4351 195.01 23.8474 195.01 23.4133V8.27405H198.697V23.7005C198.697 24.1613 198.717 24.7089 198.75 25.3433C198.783 25.9844 198.897 26.6255 199.091 27.2733C199.284 27.9211 199.605 28.5354 200.046 29.1164C200.493 29.6974 201.114 30.1582 201.909 30.5055C202.703 30.8528 203.725 31.0264 204.981 31.0264C207.051 31.0264 208.694 30.4721 209.916 29.3635C211.131 28.255 211.739 26.3985 211.739 23.8007V8.27405H213.328V22.9392C213.328 23.5202 213.295 24.2147 213.235 25.0361C213.175 25.8575 213.008 26.7056 212.727 27.5805C212.453 28.462 211.979 29.2834 211.318 30.0581C210.657 30.826 209.735 31.4471 208.553 31.9213C207.371 32.3887 205.842 32.6225 203.966 32.6225H203.972Z" fill="black"/>
<path d="M229.115 32.6226C227.693 32.6226 226.35 32.4556 225.088 32.1151C223.826 31.7745 222.844 31.474 222.143 31.2135V29.5173C222.55 29.7109 223.105 29.958 223.806 30.2585C224.507 30.5591 225.275 30.8195 226.117 31.0332C226.958 31.2469 227.779 31.3604 228.574 31.3604C230.163 31.3604 231.446 30.9464 232.421 30.1116C233.396 29.2835 233.883 28.1082 233.883 26.5856C233.883 25.644 233.603 24.8426 233.048 24.1681C232.494 23.4936 231.78 22.8792 230.898 22.3249C230.017 21.7707 229.088 21.2364 228.1 20.7155C227.112 20.1946 226.177 19.6337 225.302 19.0193C224.42 18.4049 223.706 17.6837 223.151 16.8489C222.597 16.0208 222.323 15.0391 222.323 13.9038C222.323 12.9622 222.577 12.034 223.085 11.1057C223.592 10.1774 224.4 9.40279 225.509 8.77504C226.617 8.1473 228.073 7.83343 229.876 7.83343C230.865 7.83343 231.933 7.95364 233.095 8.19405C234.25 8.43446 235.252 8.68823 236.094 8.95535L235.733 11.4129C234.337 10.8119 232.948 10.311 231.579 9.917C230.204 9.52299 228.808 9.32265 227.385 9.32265C226.684 9.66323 226.197 10.0973 225.923 10.6382C225.649 11.1792 225.509 11.7735 225.509 12.428C225.509 13.3896 225.796 14.2377 226.377 14.9723C226.958 15.7069 227.706 16.3814 228.634 16.9958C229.562 17.6102 230.537 18.2045 231.559 18.7855C232.581 19.3665 233.556 19.9876 234.484 20.6621C235.412 21.3366 236.167 22.0979 236.741 22.9393C237.322 23.7808 237.61 24.7691 237.61 25.9044C237.61 27.1599 237.296 28.2952 236.668 29.3169C236.04 30.3387 235.105 31.1467 233.85 31.7344C232.594 32.3221 231.018 32.6226 229.115 32.6226ZM229.188 6.03034L224.634 0H226.076L230.05 3.35909L233.99 0H235.433L230.918 6.03034H229.182H229.188Z" fill="black"/>
<path d="M246.311 32.1884L247.646 8.27405H251.006L259.353 26.5187L267.34 8.27405H271.026L272.362 32.1884H268.676L267.701 11.6331H267.554L258.452 32.1884H257.944L249.022 12.4612H248.875L247.9 32.1884H246.311Z" fill="black"/>
<path d="M290.746 32.6225C288.963 32.6225 287.507 32.3754 286.379 31.8812C285.243 31.387 284.362 30.7593 283.721 30.0046C283.08 29.2433 282.632 28.442 282.365 27.5872C282.098 26.7324 281.938 25.931 281.878 25.183C281.818 24.4351 281.784 23.8474 281.784 23.4133V8.27405H285.471V23.7005C285.471 24.1613 285.491 24.7089 285.524 25.3433C285.557 25.9844 285.671 26.6255 285.865 27.2733C286.058 27.9211 286.379 28.5354 286.819 29.1164C287.267 29.6974 287.888 30.1582 288.683 30.5055C289.477 30.8528 290.499 31.0264 291.755 31.0264C293.825 31.0264 295.468 30.4721 296.69 29.3635C297.905 28.255 298.513 26.3985 298.513 23.8007V8.27405H300.102V22.9392C300.102 23.5202 300.069 24.2147 300.009 25.0361C299.949 25.8575 299.782 26.7056 299.501 27.5805C299.227 28.462 298.753 29.2834 298.092 30.0581C297.431 30.826 296.509 31.4471 295.327 31.9213C294.145 32.3887 292.616 32.6225 290.74 32.6225H290.746Z" fill="black"/>
<path d="M309.678 32.1884V8.27405H313.217V30.2384C313.845 30.4053 314.473 30.5589 315.114 30.6925C315.755 30.826 316.303 30.8928 316.757 30.8928L323.295 29.7709L322.861 32.1884H309.678Z" fill="black"/>
<path d="M327.996 32.1884L338.728 7.69312H339.269L350 32.1884H346.06L343.349 25.684H332.617L329.946 32.1884H327.996ZM333.165 24.3149H342.775L338.007 12.6082L333.165 24.3149Z" fill="black"/>
</svg>
